<svg width="198" height="45" viewBox="0 0 198 45" fill="none" xmlns="http://www.w3.org/2000/svg">
<path d="M14.375 0.424999L14.675 7.45H12.525L11.675 2.275L7.075 2.025V17.225L11.175 17.525V19H0.675V17.525L3.4 17.225V2.325L0.725 1.95V0.424999H14.375ZM15.9688 12.075C15.9688 10.5083 16.2771 9.175 16.8938 8.075C17.5271 6.975 18.3688 6.15 19.4188 5.6C20.4688 5.03333 21.6104 4.75 22.8438 4.75C24.9438 4.75 26.5604 5.4 27.6937 6.7C28.8438 7.98333 29.4188 9.73333 29.4188 11.95C29.4188 13.5333 29.1021 14.8833 28.4688 16C27.8521 17.1 27.0188 17.925 25.9688 18.475C24.9354 19.0083 23.7938 19.275 22.5438 19.275C20.4604 19.275 18.8438 18.6333 17.6938 17.35C16.5438 16.05 15.9688 14.2917 15.9688 12.075ZM22.7438 17.65C24.6271 17.65 25.5688 15.8333 25.5688 12.2C25.5688 10.3 25.3438 8.85833 24.8938 7.875C24.4438 6.875 23.7104 6.375 22.6938 6.375C20.7604 6.375 19.7938 8.19167 19.7938 11.825C19.7938 13.725 20.0271 15.175 20.4938 16.175C20.9771 17.1583 21.7271 17.65 22.7438 17.65ZM45.8164 5.1L46.0414 10.8H43.8914L43.1414 6.85L40.4914 6.65V17.25L43.7914 17.5V19H33.6914V17.5L36.9414 17.25V6.65L34.1414 6.85L33.4164 10.8H31.2664L31.4664 5.1H45.8164ZM47.9268 12.075C47.9268 10.5083 48.2351 9.175 48.8518 8.075C49.4851 6.975 50.3268 6.15 51.3768 5.6C52.4268 5.03333 53.5684 4.75 54.8018 4.75C56.9018 4.75 58.5184 5.4 59.6518 6.7C60.8018 7.98333 61.3768 9.73333 61.3768 11.95C61.3768 13.5333 61.0601 14.8833 60.4268 16C59.8101 17.1 58.9768 17.925 57.9268 18.475C56.8934 19.0083 55.7518 19.275 54.5018 19.275C52.4184 19.275 50.8018 18.6333 49.6518 17.35C48.5018 16.05 47.9268 14.2917 47.9268 12.075ZM54.7018 17.65C56.5851 17.65 57.5268 15.8333 57.5268 12.2C57.5268 10.3 57.3018 8.85833 56.8518 7.875C56.4018 6.875 55.6684 6.375 54.6518 6.375C52.7184 6.375 51.7518 8.19167 51.7518 11.825C51.7518 13.725 51.9851 15.175 52.4518 16.175C52.9351 17.1583 53.6851 17.65 54.7018 17.65ZM68.4244 5.05C69.6244 4.98333 70.5577 4.95 71.2244 4.95C73.4577 4.95 74.9994 5.225 75.8494 5.775C76.6994 6.325 77.1244 7.11667 77.1244 8.15C77.1244 8.95 76.8994 9.625 76.4494 10.175C75.9994 10.725 75.3327 11.1333 74.4494 11.4C75.7161 11.5167 76.6744 11.8833 77.3244 12.5C77.9744 13.1 78.2994 13.8333 78.2994 14.7C78.2994 16.1333 77.7494 17.2333 76.6494 18C75.5661 18.7667 73.6911 19.15 71.0244 19.15C70.4744 19.15 69.9827 19.1417 69.5494 19.125C69.1161 19.1083 68.7577 19.0917 68.4744 19.075C67.7577 19.025 67.1244 19 66.5744 19H63.6994V17.5L65.3744 17.225V6.9L63.6994 6.575V5.1H66.7494L68.4244 5.05ZM70.7994 10.9C71.7827 10.9 72.4911 10.6667 72.9244 10.2C73.3744 9.73333 73.5994 9.14167 73.5994 8.425C73.5994 7.79167 73.3911 7.31667 72.9744 7C72.5744 6.68333 71.8577 6.525 70.8244 6.525C69.9077 6.525 69.2494 6.53333 68.8494 6.55V10.9H70.7994ZM68.8494 17.375C68.9827 17.425 69.2494 17.4667 69.6494 17.5C70.0661 17.5333 70.4411 17.55 70.7744 17.55C72.0577 17.55 72.9661 17.3417 73.4994 16.925C74.0327 16.4917 74.2994 15.8417 74.2994 14.975C74.2994 14.1083 74.0411 13.4667 73.5244 13.05C73.0077 12.6167 72.1827 12.4 71.0494 12.4H68.8494V17.375ZM87.3766 5.1V6.575L85.4516 6.9V14.45L86.8516 12.6L91.7016 7.425V6.9L90.0266 6.575V5.1H96.9516V6.575L95.2516 6.9V17.275L97.0266 17.5V19H89.8266V17.5L91.7016 17.275V9.6L90.2516 11.675L85.4516 16.75V17.325L87.1016 17.5V19H80.1766V17.5L81.9266 17.275V6.9L80.2266 6.575V5.1H87.3766ZM106.297 5.1L108.897 12.575L109.622 14.9L110.272 12.575L112.747 5.1H119.747V6.575L117.422 6.9L119.122 17.275L120.947 17.5V19H113.597V17.5L115.497 17.275L114.672 10.05L114.222 6.525L113.147 10L110.322 18.1H107.697L104.672 9.95L103.522 6.525L103.172 9.975L102.222 17.3L104.347 17.5V19H98.0969V17.5L99.9969 17.275L101.672 6.9L99.3219 6.575V5.1H106.297ZM128.472 4.275C128.472 7.175 128.314 9.78333 127.997 12.1C127.697 14.4 127.231 16.1333 126.597 17.3C125.931 18.5333 124.972 19.15 123.722 19.15C122.872 19.15 122.231 19.1 121.797 19L121.572 16.75C122.239 16.8167 122.872 16.85 123.472 16.85C123.806 16.85 124.089 16.775 124.322 16.625C124.572 16.475 124.789 16.2083 124.972 15.825C125.506 14.8917 125.914 13.4667 126.197 11.55C126.497 9.63333 126.647 7.05 126.647 3.8V2.3L123.647 1.975V0.424999H139.122V1.975L136.822 2.3V17.25L139.247 17.5V19H130.622V17.5L133.197 17.225L133.222 2.3H128.472V4.275ZM147.22 19.275C145.02 19.275 143.378 18.6333 142.295 17.35C141.228 16.05 140.695 14.2833 140.695 12.05C140.695 10.55 140.97 9.25 141.52 8.15C142.087 7.05 142.878 6.20833 143.895 5.625C144.912 5.04167 146.087 4.75 147.42 4.75C149.087 4.75 150.37 5.19167 151.27 6.075C152.17 6.94167 152.637 8.18333 152.67 9.8C152.67 10.9 152.603 11.7167 152.47 12.25H144.345C144.412 13.7667 144.77 14.95 145.42 15.8C146.07 16.6333 146.995 17.05 148.195 17.05C148.845 17.05 149.512 16.9417 150.195 16.725C150.895 16.5083 151.445 16.25 151.845 15.95L152.47 17.325C152.02 17.8083 151.287 18.2583 150.27 18.675C149.27 19.075 148.253 19.275 147.22 19.275ZM149.17 10.75C149.203 10.2833 149.22 9.925 149.22 9.675C149.22 7.45833 148.478 6.35 146.995 6.35C146.178 6.35 145.545 6.675 145.095 7.325C144.645 7.975 144.395 9.11667 144.345 10.75H149.17ZM165.965 5.1L166.09 10.6H164.04L163.34 6.85L159.915 6.65V17.275L163.19 17.5V19H154.465V17.5L156.365 17.275V6.9L154.515 6.55V5.1H165.965ZM177.379 11.25C178.046 11.5333 178.629 12.0083 179.129 12.675C179.629 13.325 180.171 14.1667 180.754 15.2C181.104 15.8333 181.396 16.3167 181.629 16.65C181.862 16.9667 182.087 17.1667 182.304 17.25L183.379 17.475V19H179.754C179.287 19 178.871 18.7417 178.504 18.225C178.137 17.6917 177.696 16.8917 177.179 15.825C176.662 14.725 176.204 13.8917 175.804 13.325C175.404 12.7583 174.946 12.475 174.429 12.475H172.854V17.275L174.904 17.5V19H167.579V17.5L169.329 17.275V6.9L167.629 6.575V5.1H174.554V6.575L172.854 6.9V11H175.304L178.079 6.9L176.229 6.575V5.1H182.679V6.575L180.754 6.9L177.379 11.25ZM184.45 12.075C184.45 10.5083 184.759 9.175 185.375 8.075C186.009 6.975 186.85 6.15 187.9 5.6C188.95 5.03333 190.092 4.75 191.325 4.75C193.425 4.75 195.042 5.4 196.175 6.7C197.325 7.98333 197.9 9.73333 197.9 11.95C197.9 13.5333 197.584 14.8833 196.95 16C196.334 17.1 195.5 17.925 194.45 18.475C193.417 19.0083 192.275 19.275 191.025 19.275C188.942 19.275 187.325 18.6333 186.175 17.35C185.025 16.05 184.45 14.2917 184.45 12.075ZM191.225 17.65C193.109 17.65 194.05 15.8333 194.05 12.2C194.05 10.3 193.825 8.85833 193.375 7.875C192.925 6.875 192.192 6.375 191.175 6.375C189.242 6.375 188.275 8.19167 188.275 11.825C188.275 13.725 188.509 15.175 188.975 16.175C189.459 17.1583 190.209 17.65 191.225 17.65ZM7.1 44.22C4.92667 44.22 3.3 43.54 2.22 42.18C1.14 40.82 0.6 38.9667 0.6 36.62C0.6 35.0867 0.88 33.74 1.44 32.58C2.01333 31.42 2.81333 30.5267 3.84 29.9C4.86667 29.2733 6.04667 28.96 7.38 28.96C9.58 28.96 11.2267 29.6133 12.32 30.92C13.4267 32.2133 13.98 34.0267 13.98 36.36C13.98 37.9067 13.6867 39.28 13.1 40.48C12.5267 41.6667 11.72 42.5867 10.68 43.24C9.64 43.8933 8.44667 44.22 7.1 44.22ZM7.3 30.18C6.20667 30.18 5.35333 30.72 4.74 31.8C4.12667 32.88 3.82 34.48 3.82 36.6C3.82 38.6933 4.11333 40.2867 4.7 41.38C5.3 42.46 6.15333 43 7.26 43C8.34 43 9.18667 42.4333 9.8 41.3C10.4133 40.1533 10.72 38.5067 10.72 36.36C10.72 34.28 10.4267 32.7333 9.84 31.72C9.25333 30.6933 8.40667 30.18 7.3 30.18ZM28.1308 32.88V34.06L26.7708 34.32V42.6L28.1308 42.8V44H22.5508V42.8L23.9308 42.6V34.18H19.6708V42.6L20.9908 42.8V44H15.4708V42.8L16.8308 42.6V34.32L15.4308 34.06V32.88H28.1308ZM33.3434 39H31.6234L30.8634 26.3H34.0834L33.3434 39ZM30.8634 42.68C30.8634 42.2 31.0434 41.8 31.4034 41.48C31.7634 41.16 32.1901 41 32.6834 41C33.1768 41 33.5634 41.1533 33.8434 41.46C34.1368 41.7533 34.2834 42.1067 34.2834 42.52C34.2834 43.0267 34.1034 43.4333 33.7434 43.74C33.3968 44.0333 32.9501 44.18 32.4034 44.18C31.9901 44.18 31.6301 44.04 31.3234 43.76C31.0168 43.48 30.8634 43.12 30.8634 42.68ZM47.9208 29.14V30.38L46.0808 30.64V39.96L47.4208 37.72L52.5208 31.12V30.64L50.8408 30.38V29.14H56.9608V30.38L55.4208 30.64V42.6L57.0208 42.8V44H50.8408V42.8L52.5208 42.6V33.16L51.3208 35.32L46.0808 41.98V42.6L47.8608 42.8V44H41.6208V42.8L43.2008 42.6V30.64L41.6608 30.38V29.14H47.9208ZM72.4986 32.88L72.5986 37.28H70.9586L70.3986 34.28L67.6586 34.12V42.62L70.2786 42.8V44H63.2986V42.8L64.8186 42.62V34.32L63.3386 34.04V32.88H72.4986ZM73.8297 38.46C73.8297 37.2067 74.0764 36.14 74.5697 35.26C75.0764 34.38 75.7497 33.72 76.5897 33.28C77.4297 32.8267 78.343 32.6 79.3297 32.6C81.0097 32.6 82.303 33.12 83.2097 34.16C84.1297 35.1867 84.5897 36.5867 84.5897 38.36C84.5897 39.6267 84.3364 40.7067 83.8297 41.6C83.3364 42.48 82.6697 43.14 81.8297 43.58C81.003 44.0067 80.0897 44.22 79.0897 44.22C77.423 44.22 76.1297 43.7067 75.2097 42.68C74.2897 41.64 73.8297 40.2333 73.8297 38.46ZM79.2497 42.92C80.7564 42.92 81.5097 41.4667 81.5097 38.56C81.5097 37.04 81.3297 35.8867 80.9697 35.1C80.6097 34.3 80.023 33.9 79.2097 33.9C77.663 33.9 76.8897 35.3533 76.8897 38.26C76.8897 39.78 77.0764 40.94 77.4497 41.74C77.8364 42.5267 78.4364 42.92 79.2497 42.92ZM97.7078 32.88L97.8878 37.44H96.1678L95.5678 34.28L93.4478 34.12V42.6L96.0878 42.8V44H88.0078V42.8L90.6078 42.6V34.12L88.3678 34.28L87.7878 37.44H86.0678L86.2278 32.88H97.7078ZM99.3961 38.46C99.3961 37.2067 99.6428 36.14 100.136 35.26C100.643 34.38 101.316 33.72 102.156 33.28C102.996 32.8267 103.909 32.6 104.896 32.6C106.576 32.6 107.869 33.12 108.776 34.16C109.696 35.1867 110.156 36.5867 110.156 38.36C110.156 39.6267 109.903 40.7067 109.396 41.6C108.903 42.48 108.236 43.14 107.396 43.58C106.569 44.0067 105.656 44.22 104.656 44.22C102.989 44.22 101.696 43.7067 100.776 42.68C99.8561 41.64 99.3961 40.2333 99.3961 38.46ZM104.816 42.92C106.323 42.92 107.076 41.4667 107.076 38.56C107.076 37.04 106.896 35.8867 106.536 35.1C106.176 34.3 105.589 33.9 104.776 33.9C103.229 33.9 102.456 35.3533 102.456 38.26C102.456 39.78 102.643 40.94 103.016 41.74C103.403 42.5267 104.003 42.92 104.816 42.92ZM115.794 32.84C116.754 32.7867 117.501 32.76 118.034 32.76C119.821 32.76 121.054 32.98 121.734 33.42C122.414 33.86 122.754 34.4933 122.754 35.32C122.754 35.96 122.574 36.5 122.214 36.94C121.854 37.38 121.321 37.7067 120.614 37.92C121.628 38.0133 122.394 38.3067 122.914 38.8C123.434 39.28 123.694 39.8667 123.694 40.56C123.694 41.7067 123.254 42.5867 122.374 43.2C121.508 43.8133 120.008 44.12 117.874 44.12C117.434 44.12 117.041 44.1133 116.694 44.1C116.348 44.0867 116.061 44.0733 115.834 44.06C115.261 44.02 114.754 44 114.314 44H112.014V42.8L113.354 42.58V34.32L112.014 34.06V32.88H114.454L115.794 32.84ZM117.694 37.52C118.481 37.52 119.048 37.3333 119.394 36.96C119.754 36.5867 119.934 36.1133 119.934 35.54C119.934 35.0333 119.768 34.6533 119.434 34.4C119.114 34.1467 118.541 34.02 117.714 34.02C116.981 34.02 116.454 34.0267 116.134 34.04V37.52H117.694ZM116.134 42.7C116.241 42.74 116.454 42.7733 116.774 42.8C117.108 42.8267 117.408 42.84 117.674 42.84C118.701 42.84 119.428 42.6733 119.854 42.34C120.281 41.9933 120.494 41.4733 120.494 40.78C120.494 40.0867 120.288 39.5733 119.874 39.24C119.461 38.8933 118.801 38.72 117.894 38.72H116.134V42.7ZM125.236 38.46C125.236 37.2067 125.483 36.14 125.976 35.26C126.483 34.38 127.156 33.72 127.996 33.28C128.836 32.8267 129.749 32.6 130.736 32.6C132.416 32.6 133.709 33.12 134.616 34.16C135.536 35.1867 135.996 36.5867 135.996 38.36C135.996 39.6267 135.743 40.7067 135.236 41.6C134.743 42.48 134.076 43.14 133.236 43.58C132.409 44.0067 131.496 44.22 130.496 44.22C128.829 44.22 127.536 43.7067 126.616 42.68C125.696 41.64 125.236 40.2333 125.236 38.46ZM130.656 42.92C132.163 42.92 132.916 41.4667 132.916 38.56C132.916 37.04 132.736 35.8867 132.376 35.1C132.016 34.3 131.429 33.9 130.616 33.9C129.069 33.9 128.296 35.3533 128.296 38.26C128.296 39.78 128.483 40.94 128.856 41.74C129.243 42.5267 129.843 42.92 130.656 42.92ZM141.234 39H139.514L138.754 26.3H141.974L141.234 39ZM138.754 42.68C138.754 42.2 138.934 41.8 139.294 41.48C139.654 41.16 140.081 41 140.574 41C141.067 41 141.454 41.1533 141.734 41.46C142.027 41.7533 142.174 42.1067 142.174 42.52C142.174 43.0267 141.994 43.4333 141.634 43.74C141.287 44.0333 140.841 44.18 140.294 44.18C139.881 44.18 139.521 44.04 139.214 43.76C138.907 43.48 138.754 43.12 138.754 42.68Z" fill="#EB394F"/>
</svg>
